HIERARCHY
ROOT Hips
{
	OFFSET 0.000000 8.830580 0.000000
	CHANNELS 6 Xposition Yposition Zposition Zrotation Yrotation Xrotation 
	JOINT Spine
	{
		OFFSET 0.000000 0.010000 0.000000
		CHANNELS 3 Zrotation Yrotation Xrotation
		JOINT Spine1
		{
			OFFSET 0.000000 2.459130 0.000000
			CHANNELS 3 Zrotation Yrotation Xrotation
			JOINT Neck
			{
				OFFSET 0.000000 2.484630 0.000000
				CHANNELS 3 Zrotation Yrotation Xrotation
				JOINT Head_virtual
				{
					OFFSET 0.000000 0.000000 0.000000
					CHANNELS 3 Zrotation Yrotation Xrotation
					JOINT Head
					{
						OFFSET 0.000000 0.927525 0.000000
						CHANNELS 3 Zrotation Yrotation Xrotation
						End Site
						{
							OFFSET 0.000000 0.000000 0.000000
						}
					}
				}
				JOINT LeftUpArm_virtual
				{
					OFFSET 0.000000 0.000000 0.000000
					CHANNELS 3 Zrotation Yrotation Xrotation
					JOINT LeftUpArm
					{
						OFFSET 1.248820 0.000000 0.000000
						CHANNELS 3 Zrotation Yrotation Xrotation
						JOINT LeftForeArm
						{
							OFFSET 2.597580 0.000000 0.000000
							CHANNELS 3 Zrotation Yrotation Xrotation
							JOINT LeftHand
							{
								OFFSET 2.455420 0.000000 0.000000
								CHANNELS 3 Zrotation Yrotation Xrotation
								End Site
								{
									OFFSET 0.000000 0.000000 0.000000
								}
							}
						}
					}
				}
				JOINT RightUpArm_virtual
				{
					OFFSET -0.000000 -0.000000 -0.000000
					CHANNELS 3 Zrotation Yrotation Xrotation
					JOINT RightUpArm
					{
						OFFSET -1.248820 -0.000000 -0.000000
						CHANNELS 3 Zrotation Yrotation Xrotation
						JOINT RightForeArm
						{
							OFFSET -2.597580 -0.000000 -0.000000
							CHANNELS 3 Zrotation Yrotation Xrotation
							JOINT RightHand
							{
								OFFSET -2.455420 -0.000000 -0.000000
								CHANNELS 3 Zrotation Yrotation Xrotation
								End Site
								{
									OFFSET 0.000000 0.000000 0.000000
								}
							}
						}
					}
				}
			}
		}
	}
	JOINT LeftUpLeg
	{
		OFFSET 1.271939 0.000000 0.000000
		CHANNELS 3 Zrotation Yrotation Xrotation
		JOINT LeftLowLeg
		{
			OFFSET 0.000000 -4.342910 0.000000
			CHANNELS 3 Zrotation Yrotation Xrotation
			JOINT LeftFoot
			{
				OFFSET 0.000000 -4.487670 0.000000
				CHANNELS 3 Zrotation Yrotation Xrotation
				JOINT LeftToeBase
				{
					OFFSET 0.000000 0.000000 1.515070
					CHANNELS 3 Zrotation Yrotation Xrotation
					End Site
					{
						OFFSET 0.000000 0.000000 0.000000
					}
				}
			}
		}
	}
	JOINT RightUpLeg
	{
		OFFSET -1.271939 0.000000 0.000000
		CHANNELS 3 Zrotation Yrotation Xrotation
		JOINT RightLowLeg
		{
			OFFSET 0.000000 -4.342910 0.000000
			CHANNELS 3 Zrotation Yrotation Xrotation
			JOINT RightFoot
			{
				OFFSET 0.000000 -4.487670 0.000000
				CHANNELS 3 Zrotation Yrotation Xrotation
				JOINT RightToeBase
				{
					OFFSET 0.000000 0.000000 1.515070
					CHANNELS 3 Zrotation Yrotation Xrotation
					End Site
					{
						OFFSET 0.000000 0.000000 0.000000
					}
				}
			}
		}
	}
}
MOTION
Frames: 10
Frame Time: 0.041667
-12.082217 9.263102 54.760380 -172.947232 13.137711 177.069414 -5.531651 -11.583410 -12.709443 31.946657 -5.378930 21.833047 0.000000 0.000000 0.000000 -16.869453 -8.897194 -7.764727 17.789533 11.456658 -70.188962 -42.400299 -0.839987 -1.466770 -35.931999 -5.106500 -155.520996 0.000000 43.017101 0.000000 -3.466810 1.269570 -177.636002 14.882700 -11.788800 33.654099 25.660000 34.176300 -6.552220 0.000000 19.717600 0.000000 -6.328670 -3.104020 -10.116300 16.530454 27.485893 13.339337 0.000000 0.000000 3.293410 -11.215412 4.917620 8.051975 0.000000 0.000000 -11.702140 12.673142 17.964508 6.113396 0.000000 0.000000 7.391790 13.645929 -22.727533 10.445067 0.000000 0.000000 -12.525530 
-12.109832 9.264755 54.740776 -172.870882 13.305266 176.898783 -5.431563 -11.675915 -12.791527 31.951274 -5.449172 21.730362 0.000000 0.000000 0.000000 -17.021972 -8.873604 -7.713590 17.654595 11.477445 -70.250820 -42.193802 -0.750826 -1.176750 -36.276901 -5.337980 -155.626999 0.000000 43.252201 0.000000 -2.709710 1.603500 -177.311996 14.485600 -11.450800 31.294399 27.681999 33.129002 -4.108210 0.000000 19.937099 0.000000 -6.748750 -3.011400 -10.020800 16.563300 27.466870 13.560819 0.000000 0.000000 3.566700 -11.153241 5.035949 7.769144 0.000000 0.000000 -11.626740 12.657095 18.051290 6.315589 0.000000 0.000000 7.535100 13.796199 -22.695081 10.395729 0.000000 0.000000 -12.388640 
-12.138653 9.265882 54.720546 -172.814218 13.435242 176.770151 -5.237825 -11.737134 -12.881009 31.750238 -5.486241 21.496330 0.000000 0.000000 0.000000 -16.910669 -8.990428 -7.439608 17.338982 11.711450 -70.571447 -42.036098 -0.875208 -1.497480 -36.348499 -4.799370 -154.742004 0.000000 43.539799 0.000000 -2.716830 1.272520 -176.837006 14.773700 -11.507000 31.434401 27.233999 33.314800 -4.458090 0.000000 20.121300 0.000000 -6.721050 -2.942630 -10.152200 16.458828 27.164024 13.661443 0.000000 0.000000 3.881840 -11.134002 5.391285 7.421564 0.000000 0.000000 -11.554010 12.568355 17.947716 6.514355 0.000000 0.000000 7.561100 13.896579 -22.527216 10.431021 0.000000 0.000000 -12.341390 
-12.167692 9.267302 54.700316 -172.739146 13.645600 176.640853 -5.098664 -11.797969 -13.013280 31.677429 -5.606098 21.443900 0.000000 0.000000 0.000000 -17.118772 -8.880651 -7.438972 17.292375 11.761654 -70.639295 -41.816601 -0.972609 -1.734240 -36.650700 -4.354010 -153.977005 0.000000 43.595402 0.000000 -2.836770 1.492420 -176.056000 14.977900 -11.670100 30.405199 27.340799 33.151100 -3.384950 0.000000 20.289700 0.000000 -6.857370 -2.898700 -10.230000 16.343966 26.760238 13.807091 0.000000 0.000000 4.146410 -11.146124 5.890413 7.075217 0.000000 0.000000 -11.392690 12.526379 18.051810 6.696839 0.000000 0.000000 7.663560 13.994765 -22.469782 10.446365 0.000000 0.000000 -12.305520 
-12.197336 9.269101 54.680283 -172.699592 13.841379 176.467425 -4.995449 -11.876937 -13.099665 31.624623 -5.708008 21.376961 0.000000 0.000000 0.000000 -17.377198 -8.769705 -7.410235 17.309550 11.797972 -70.727571 -41.811001 -0.905979 -1.415350 -36.684601 -4.373300 -153.348007 0.000000 43.485100 0.000000 -2.699600 1.411300 -176.173004 14.508000 -11.279000 26.204201 30.421301 31.078699 0.762827 0.000000 20.524200 0.000000 -7.148990 -2.850500 -9.735260 16.185454 26.307748 14.023706 0.000000 0.000000 4.323440 -11.054854 6.457873 6.810225 0.000000 0.000000 -11.332590 12.461731 18.136444 6.927484 0.000000 0.000000 7.739550 14.074579 -22.428165 10.454116 0.000000 0.000000 -12.272360 
-12.227875 9.270587 54.659231 -172.639275 14.065409 176.276876 -4.793064 -11.848264 -13.213345 31.352714 -5.834843 21.345259 0.000000 0.000000 0.000000 -17.125748 -8.889565 -7.265510 16.813087 12.090566 -71.091971 -41.687302 -1.017610 -1.564130 -36.763000 -3.876770 -152.240997 0.000000 43.264900 0.000000 -2.776880 1.297430 -176.363007 14.877500 -11.395100 25.143499 30.486799 30.792101 1.680200 0.000000 20.672501 0.000000 -7.097800 -2.820280 -9.743870 16.132092 26.109457 14.371471 0.000000 0.000000 4.377660 -11.008243 6.781280 6.595947 0.000000 0.000000 -11.182800 12.406868 18.154919 7.204173 0.000000 0.000000 7.759440 14.094450 -22.335015 10.526331 0.000000 0.000000 -12.296670 
-12.259001 9.271331 54.639960 -172.576633 14.343188 176.164325 -4.606879 -11.805688 -13.360479 31.190009 -5.911293 21.312614 0.000000 0.000000 0.000000 -17.440437 -8.670740 -7.292715 16.953375 12.131716 -71.086810 -41.582600 -1.079980 -1.655990 -36.935001 -3.415990 -150.970993 0.000000 42.849499 0.000000 -3.171570 1.255450 -176.423996 14.778200 -11.273400 23.531300 31.521700 30.051500 3.163530 0.000000 20.798300 0.000000 -7.201650 -2.694090 -9.661200 16.030595 25.918253 14.691094 0.000000 0.000000 4.330600 -10.981829 7.164223 6.398571 0.000000 0.000000 -11.162820 12.324253 18.207295 7.368826 0.000000 0.000000 7.838660 14.156615 -22.185653 10.547152 0.000000 0.000000 -12.121830 
-12.290164 9.272394 54.619294 -172.521553 14.622733 176.042413 -4.390977 -11.732209 -13.466153 30.938631 -5.998309 21.286570 0.000000 0.000000 0.000000 -17.091605 -8.846078 -7.339005 16.481843 12.297256 -71.379817 -41.638500 -0.730471 -1.244230 -36.921299 -3.655100 -149.987000 0.000000 42.277802 0.000000 -3.121010 1.105200 -176.550003 15.337500 -11.799000 24.190800 30.372601 31.003700 2.696290 0.000000 20.853600 0.000000 -7.115840 -2.866570 -10.024100 15.980707 25.891491 15.085059 0.000000 0.000000 4.208380 -10.928392 7.392287 6.281638 0.000000 0.000000 -11.125010 12.248760 18.320454 7.561509 0.000000 0.000000 7.899430 14.232440 -22.102396 10.557378 0.000000 0.000000 -12.136770 
-12.321612 9.272929 54.599914 -172.457982 14.940239 175.970874 -4.190145 -11.690771 -13.603040 30.815031 -6.018877 21.179026 0.000000 0.000000 0.000000 -17.633519 -8.525192 -7.354047 16.709724 12.290907 -71.295386 -41.662399 -0.788010 -1.374330 -36.950600 -2.987590 -148.574005 0.000000 41.895901 0.000000 -2.989000 0.421381 -176.481995 15.084300 -11.654200 20.209400 32.824699 28.881599 6.380550 0.000000 20.968599 0.000000 -7.171430 -2.836720 -9.700620 15.967040 26.034899 15.471216 0.000000 0.000000 4.051660 -10.885985 7.485075 6.185884 0.000000 0.000000 -11.076830 12.145258 18.374382 7.695179 0.000000 0.000000 7.950150 14.305821 -21.913837 10.582988 0.000000 0.000000 -12.137980 
-12.353154 9.272833 54.582624 -172.416319 15.117115 175.989605 -3.973572 -11.676839 -13.798536 30.478950 -6.059572 20.971051 0.000000 0.000000 0.000000 -17.482926 -8.536627 -7.029038 16.375321 12.641014 -71.526987 -41.446800 -0.860465 -1.362820 -37.220501 -2.182160 -147.778000 0.000000 41.592400 0.000000 -2.660250 0.146599 -175.365997 14.974900 -11.160800 18.520100 34.100601 27.462700 7.671630 0.000000 21.066200 0.000000 -7.207800 -2.745610 -9.524320 15.793803 25.922538 15.642673 0.000000 0.000000 3.925720 -10.842253 7.718184 6.045207 0.000000 0.000000 -11.024840 11.990920 18.398429 7.716670 0.000000 0.000000 7.994770 14.394087 -21.789879 10.576782 0.000000 0.000000 -12.151230 
